<svg width="40" height="40" viewBox="0 0 40 40" fill="none" xmlns="http://www.w3.org/2000/svg">
<g clip-path="url(#clip0_252_43)">
<path d="M15 21.3333H11.6667V24.6666H15V21.3333ZM21.6667 21.3333H18.3333V24.6666H21.6667V21.3333ZM28.3333 21.3333H25V24.6666H28.3333V21.3333ZM31.6667 9.66659H30V6.33325H26.6667V9.66659H13.3333V6.33325H10V9.66659H8.33333C6.48333 9.66659 5.01667 11.1666 5.01667 12.9999L5 36.3333C5 38.1666 6.48333 39.6666 8.33333 39.6666H31.6667C33.5 39.6666 35 38.1666 35 36.3333V12.9999C35 11.1666 33.5 9.66659 31.6667 9.66659ZM31.6667 36.3333H8.33333V17.9999H31.6667V36.3333Z" fill="#B77C54"/>
</g>
<defs>
<clipPath id="clip0_252_43">
<rect width="40" height="40" fill="white"/>
</clipPath>
</defs>
</svg>
