<svg width="40" height="38" viewBox="0 0 40 38" fill="none" xmlns="http://www.w3.org/2000/svg">
<g clip-path="url(#clip0_252_80)">
<rect width="40" height="36.8899" transform="translate(0 0.181396)" fill="#5B1D20"/>
<path fill-rule="evenodd" clip-rule="evenodd" d="M21.1393 0.250488H24.8307V1.38829C34.0658 3.33965 35.1204 7.42852 29.7656 13.874C30.3353 7.47955 29.6354 6.10759 24.8307 5.81038V21.9797C24.8405 22.0668 24.8437 22.1508 24.8437 22.2379C24.8437 24.3394 22.4512 26.4228 19.5052 26.8942C16.556 27.3655 14.1667 26.0416 14.1667 23.9401C14.1667 21.0731 18.4375 18.5843 21.1426 19.4609L21.1393 0.250488ZM28.5384 27.7768H28.4863C28.4863 27.3895 28.3301 27.0533 28.0176 26.7621C27.7051 26.4739 27.3372 26.3298 26.9173 26.3298V26.2817C27.3372 26.2817 27.7018 26.1376 28.0176 25.8494C28.3301 25.5582 28.4863 25.222 28.4863 24.8377H28.5384C28.5384 25.225 28.6947 25.5612 29.0072 25.8494C29.3197 26.1376 29.6875 26.2817 30.1074 26.2817V26.3298C29.6875 26.3298 29.3229 26.4739 29.0072 26.7621C28.6947 27.0503 28.5384 27.3895 28.5384 27.7768ZM35.1204 22.6492L34.9902 22.6402C35.0684 21.6735 34.7461 20.7999 34.0234 20.0223C33.3008 19.2448 32.4154 18.8185 31.3639 18.7464L31.3737 18.6264C32.4219 18.7014 33.3691 18.4012 34.2122 17.7347C35.0553 17.0653 35.5176 16.2487 35.5957 15.285L35.7259 15.294C35.6478 16.2607 35.9701 17.1343 36.6927 17.9119C37.4154 18.6894 38.3008 19.1157 39.3522 19.1878L39.3424 19.3078C38.2943 19.2328 37.347 19.533 36.5039 20.1995C35.6608 20.8659 35.2018 21.6825 35.1204 22.6492ZM40.5892 13.1205L40.4264 13.1385C40.2572 11.8987 39.6094 10.8719 38.4766 10.0584C37.347 9.24479 36.1068 8.91756 34.7591 9.07067L34.7396 8.92056C36.084 8.76746 37.1973 8.16704 38.0794 7.1223C38.9616 6.07757 39.3164 4.93377 39.1504 3.6969L39.3131 3.67889C39.4824 4.91876 40.1302 5.94548 41.263 6.75905C42.3958 7.57262 43.6328 7.89985 44.9805 7.74674L45 7.89685C43.6556 8.05296 42.5423 8.65037 41.6602 9.69511C40.778 10.7368 40.4232 11.8806 40.5892 13.1205ZM11.0059 16.4709C10.2572 16.4709 9.64844 15.9095 9.64844 15.219C9.64844 14.5285 10.2572 13.9671 11.0059 13.9671H16.4193C17.168 13.9671 17.7767 14.5285 17.7767 15.219C17.7767 15.9095 17.168 16.4709 16.4193 16.4709H11.0059ZM8.44075 10.3946C7.69206 10.3946 7.08333 9.8332 7.08333 9.14272C7.08333 8.45224 7.69206 7.89084 8.44075 7.89084H16.4225C17.1712 7.89084 17.7799 8.45224 17.7799 9.14272C17.7799 9.8332 17.1712 10.3946 16.4225 10.3946H6.19466H8.44075ZM6.35742 4.31834C5.60872 4.31834 5 3.75695 5 3.06346C5 2.37298 5.60872 1.81158 6.35742 1.81158H16.4225C17.1712 1.81158 17.7799 2.37298 17.7799 3.06346C17.7799 3.75394 17.1712 4.31534 16.4225 4.31534L6.35742 4.31834Z" fill="#B77C54"/>
</g>
<defs>
<clipPath id="clip0_252_80">
<rect width="40" height="36.8899" fill="white" transform="translate(0 0.181396)"/>
</clipPath>
</defs>
</svg>
