<svg width="40" height="38" viewBox="0 0 40 38" fill="none" xmlns="http://www.w3.org/2000/svg">
<g clip-path="url(#clip0_252_50)">
<path d="M12.6061 12.2917C12.0861 12.2917 11.6631 12.6819 11.6631 13.1636C11.6631 13.6432 12.0862 14.0333 12.6061 14.0333C13.126 14.0333 13.5491 13.6432 13.5491 13.1615C13.5492 12.6819 13.1261 12.2917 12.6061 12.2917Z" fill="#B77C54"/>
<path d="M10.8756 10.9785C10.3556 10.9785 9.93262 11.3686 9.93262 11.8504C9.93262 12.33 10.3557 12.7201 10.8756 12.7201C11.3955 12.7201 11.8186 12.33 11.8186 11.8482C11.8186 11.3686 11.3956 10.9785 10.8756 10.9785Z" fill="#B77C54"/>
<path d="M15.3889 14.3377C15.3889 13.8581 14.9658 13.468 14.4459 13.468C13.926 13.468 13.5029 13.8581 13.5029 14.3399C13.5029 14.8195 13.926 15.2096 14.4459 15.2096C14.9658 15.2096 15.3889 14.8194 15.3889 14.3377Z" fill="#B77C54"/>
<path d="M8.81765 8.79522C8.81765 8.31565 8.39456 7.92554 7.87464 7.92554C7.35473 7.92554 6.93164 8.31565 6.93164 8.79736C6.93164 9.27692 7.35473 9.66712 7.87464 9.66712C8.39456 9.66712 8.81765 9.27685 8.81765 8.79522Z" fill="#B77C54"/>
<path d="M7.61159 7.05401C7.61159 6.57444 7.1885 6.18433 6.66859 6.18433C6.14868 6.18433 5.72559 6.57444 5.72559 7.05623C5.72559 7.53579 6.14868 7.92591 6.66859 7.92591C7.1885 7.92591 7.61159 7.53571 7.61159 7.05401Z" fill="#B77C54"/>
<path d="M6.66042 5.18584C6.66042 4.70628 6.23733 4.31616 5.71742 4.31616C5.1975 4.31616 4.77441 4.70628 4.77441 5.18806C4.77441 5.66763 5.1975 6.05774 5.71742 6.05774C6.23733 6.05774 6.66042 5.66763 6.66042 5.18584Z" fill="#B77C54"/>
<path d="M16.3738 16.2557C16.8938 16.2557 17.3168 15.8656 17.3168 15.3838C17.3168 14.9043 16.8937 14.5142 16.3738 14.5142C15.8537 14.5142 15.4307 14.9043 15.4307 15.3861C15.4306 15.8655 15.8537 16.2557 16.3738 16.2557Z" fill="#B77C54"/>
<path d="M10.2298 10.3934C10.2298 9.91387 9.80675 9.52368 9.28675 9.52368C8.76675 9.52368 8.34375 9.91387 8.34375 10.3956C8.34375 10.8751 8.76684 11.2653 9.28675 11.2653C9.80675 11.2653 10.2298 10.8751 10.2298 10.3934Z" fill="#B77C54"/>
<path d="M27.3932 12.2917C26.8732 12.2917 26.4502 12.6819 26.4502 13.1636C26.4502 13.6432 26.8733 14.0333 27.3932 14.0333C27.9131 14.0333 28.3362 13.6432 28.3362 13.1615C28.3362 12.6819 27.9131 12.2917 27.3932 12.2917Z" fill="#B77C54"/>
<path d="M29.1237 10.9785C28.6037 10.9785 28.1807 11.3686 28.1807 11.8504C28.1807 12.33 28.6038 12.7201 29.1237 12.7201C29.6436 12.7201 30.0667 12.33 30.0667 11.8482C30.0667 11.3686 29.6436 10.9785 29.1237 10.9785Z" fill="#B77C54"/>
<path d="M25.5534 13.468C25.0334 13.468 24.6104 13.8581 24.6104 14.3399C24.6104 14.8195 25.0334 15.2096 25.5534 15.2096C26.0733 15.2096 26.4964 14.8195 26.4964 14.3377C26.4964 13.8582 26.0734 13.468 25.5534 13.468Z" fill="#B77C54"/>
<path d="M32.1246 7.92554C31.6046 7.92554 31.1816 8.31565 31.1816 8.79736C31.1816 9.27692 31.6047 9.66712 32.1246 9.66712C32.6446 9.66712 33.0677 9.27692 33.0677 8.79522C33.0677 8.31565 32.6446 7.92554 32.1246 7.92554Z" fill="#B77C54"/>
<path d="M33.3307 6.18433C32.8107 6.18433 32.3877 6.57444 32.3877 7.05623C32.3877 7.53579 32.8108 7.92591 33.3307 7.92591C33.8506 7.92591 34.2737 7.53579 34.2737 7.05401C34.2737 6.57444 33.8506 6.18433 33.3307 6.18433Z" fill="#B77C54"/>
<path d="M34.2819 4.31616C33.7619 4.31616 33.3389 4.70628 33.3389 5.18806C33.3389 5.66763 33.762 6.05774 34.2819 6.05774C34.8018 6.05774 35.2249 5.66763 35.2249 5.18584C35.2249 4.70628 34.8018 4.31616 34.2819 4.31616Z" fill="#B77C54"/>
<path d="M23.6256 16.2557C24.1457 16.2557 24.5687 15.8656 24.5687 15.3838C24.5687 14.9043 24.1456 14.5142 23.6256 14.5142C23.1056 14.5142 22.6826 14.9043 22.6826 15.3861C22.6826 15.8655 23.1057 16.2557 23.6256 16.2557Z" fill="#B77C54"/>
<path d="M30.7126 9.52368C30.1925 9.52368 29.7695 9.91387 29.7695 10.3956C29.7695 10.8751 30.1926 11.2653 30.7126 11.2653C31.2326 11.2653 31.6556 10.8751 31.6556 10.3934C31.6556 9.9138 31.2325 9.52368 30.7126 9.52368Z" fill="#B77C54"/>
<path d="M19.9996 19.5435C19.4796 19.5435 19.0566 19.9336 19.0566 20.4154C19.0566 20.8949 19.4797 21.285 19.9996 21.285C20.5196 21.285 20.9426 20.8949 20.9426 20.4131C20.9426 19.9337 20.5196 19.5435 19.9996 19.5435Z" fill="#B77C54"/>
<path d="M19.9996 21.5691C19.4796 21.5691 19.0566 21.9592 19.0566 22.4409C19.0566 22.9205 19.4797 23.3107 19.9996 23.3107C20.5196 23.3107 20.9426 22.9205 20.9426 22.4388C20.9426 21.9593 20.5196 21.5691 19.9996 21.5691Z" fill="#B77C54"/>
<path d="M24.2134 26.2892H21.71V24.2278C21.71 23.878 21.4025 23.5945 21.0233 23.5945H18.9755C18.5962 23.5945 18.2888 23.878 18.2888 24.2278V26.2892H15.7853C15.4061 26.2892 15.0986 26.5727 15.0986 26.9225V28.8111C15.0986 29.1608 15.4061 29.4444 15.7853 29.4444H18.2888V36.4379C18.2888 36.7877 18.5962 37.0712 18.9755 37.0712H21.0233C21.4025 37.0712 21.71 36.7877 21.71 36.4379V29.4445H24.2134C24.5926 29.4445 24.9001 29.1609 24.9001 28.8112V26.9226C24.9001 26.5727 24.5926 26.2892 24.2134 26.2892ZM23.5267 28.1778H21.0233C20.644 28.1778 20.3366 28.4614 20.3366 28.8112V35.8046H19.6622V28.8112C19.6622 28.4614 19.3547 28.1778 18.9755 28.1778H16.472V27.5559H18.9755C19.3547 27.5559 19.6622 27.2723 19.6622 26.9226V24.8612H20.3366V26.9226C20.3366 27.2723 20.644 27.5559 21.0233 27.5559H23.5267V28.1778Z" fill="#B77C54"/>
<path d="M19.9996 19.2596C21.4511 19.2596 22.6321 18.1705 22.6321 16.8318C22.6321 15.4932 21.4511 14.4041 19.9996 14.4041C18.5481 14.4041 17.3672 15.4932 17.3672 16.8318C17.3672 18.1705 18.5481 19.2596 19.9996 19.2596ZM19.9996 15.6707C20.6939 15.6707 21.2587 16.1915 21.2587 16.8318C21.2587 17.4721 20.6939 17.993 19.9996 17.993C19.3054 17.993 18.7406 17.4721 18.7406 16.8318C18.7406 16.1915 19.3054 15.6707 19.9996 15.6707Z" fill="#B77C54"/>
<path d="M7.20169 2.13965C7.20169 1.05987 6.24924 0.181396 5.07843 0.181396C3.90752 0.181396 2.95508 1.05987 2.95508 2.13965C2.95508 3.21943 3.90761 4.0979 5.07843 4.0979C6.24924 4.0979 7.20169 3.21943 7.20169 2.13965ZM4.32847 2.13965C4.32847 1.75832 4.66495 1.448 5.07843 1.448C5.4919 1.448 5.8283 1.75824 5.8283 2.13965C5.8283 2.52105 5.4919 2.83129 5.07843 2.83129C4.66495 2.83129 4.32847 2.52097 4.32847 2.13965Z" fill="#B77C54"/>
<path d="M34.9211 0.181396C33.7503 0.181396 32.7979 1.05987 32.7979 2.13965C32.7979 3.21943 33.7504 4.0979 34.9211 4.0979C36.092 4.0979 37.0445 3.21943 37.0445 2.13965C37.0445 1.05987 36.092 0.181396 34.9211 0.181396ZM34.9211 2.83129C34.5076 2.83129 34.1712 2.52105 34.1712 2.13965C34.1712 1.75824 34.5076 1.448 34.9211 1.448C35.3346 1.448 35.6711 1.75824 35.6711 2.13965C35.6711 2.52105 35.3346 2.83129 34.9211 2.83129Z" fill="#B77C54"/>
</g>
<defs>
<clipPath id="clip0_252_50">
<rect width="40" height="36.8899" fill="white" transform="translate(0 0.181396)"/>
</clipPath>
</defs>
</svg>
