<svg width="40" height="40" viewBox="0 0 40 40" fill="none" xmlns="http://www.w3.org/2000/svg">
<g clip-path="url(#clip0_252_87)">
<path d="M35.3832 4.6775C35.015 4.6775 34.7166 4.97602 34.7166 5.34414V28.3404H9.25258V23.4777C9.25258 23.1095 8.95406 22.8111 8.58594 22.8111C8.21773 22.8111 7.9193 23.1096 7.9193 23.4777V28.3891C6.89414 28.5373 5.9768 29.022 5.28266 29.7273V4.63664C5.28266 3.04352 6.41633 1.71023 7.9193 1.40102V3.9093C7.9193 4.2775 8.21781 4.57594 8.58594 4.57594C8.95414 4.57594 9.25258 4.27742 9.25258 3.9093V1.33336H34.7166V3.12195C34.7165 3.49016 35.015 3.78859 35.3831 3.78859C35.7513 3.78859 36.0498 3.49008 36.0498 3.12195V0.666641C36.0498 0.298438 35.7513 0 35.3831 0H8.58586C6.02914 0 3.9493 2.08 3.9493 4.63664V32.9734C3.9493 32.9745 3.94922 32.9757 3.94922 32.9768C3.94922 33.4672 4.02578 33.9504 4.17648 34.4122C4.40109 35.1036 4.79203 35.7412 5.30742 36.2566C6.18406 37.132 7.3482 37.6141 8.58563 37.6141H9.53234V39.3334C9.53234 39.5758 9.66383 39.799 9.87578 39.9165C10.0876 40.0339 10.3466 40.0272 10.5523 39.8987L13.0434 38.3417L15.5345 39.8987C15.6424 39.9662 15.765 40 15.8879 40C15.999 40 16.1104 39.9723 16.2111 39.9164C16.4231 39.7989 16.5545 39.5757 16.5545 39.3333V37.6141H35.3829C35.7511 37.6141 36.0495 37.3155 36.0495 36.9474L36.0498 5.34414C36.0499 4.97602 35.7514 4.6775 35.3832 4.6775ZM15.2212 36.9466C15.2212 36.9468 15.2212 36.9471 15.2212 36.9474C15.2212 36.9478 15.2212 36.948 15.2212 36.9483V38.1304L13.3967 36.9902C13.2886 36.9226 13.1659 36.8888 13.0434 36.8888C12.9208 36.8888 12.7981 36.9226 12.69 36.9902L10.8655 38.1304V32.2666H15.2211V36.9466H15.2212ZM17.2212 30.9334H8.59898C8.23078 30.9334 7.93234 31.2319 7.93234 31.6C7.93234 31.9682 8.23086 32.2666 8.59898 32.2666H9.53234V33.5395H7.71008C7.34188 33.5395 7.04344 33.838 7.04344 34.2062C7.04344 34.5743 7.34195 34.8728 7.71008 34.8728H9.53227V36.2807H8.58555C7.70406 36.2807 6.87437 35.937 6.24984 35.3134C5.88289 34.9464 5.60445 34.4923 5.44422 33.9992C5.33688 33.6704 5.28242 33.3263 5.28242 32.9767C5.2825 31.1554 6.7643 29.6736 8.58555 29.6736H31.7394V30.9332H21.3101C20.9419 30.9332 20.6434 31.2317 20.6434 31.5998C20.6434 31.968 20.942 32.2665 21.3101 32.2665H31.7394V33.5394H16.5545V32.2665H17.2212C17.5894 32.2665 17.8878 31.968 17.8878 31.5998C17.8878 31.2318 17.5894 30.9334 17.2212 30.9334ZM34.7162 36.2808H16.5545V34.8729H32.406C32.7742 34.8729 33.0727 34.5744 33.0727 34.2062V29.6737H34.7161L34.7162 36.2808Z" fill="#B77C54"/>
<path d="M8.58559 5.51099C8.21738 5.51099 7.91895 5.8095 7.91895 6.17763V21.0673C7.91895 21.4355 8.21746 21.734 8.58559 21.734C8.95379 21.734 9.25223 21.4354 9.25223 21.0673V6.1777C9.2523 5.8095 8.95379 5.51099 8.58559 5.51099Z" fill="#B77C54"/>
<path d="M32.2641 6.20592C30.9207 6.20592 29.8279 5.11303 29.8279 3.76967C29.8279 3.40146 29.5293 3.10303 29.1612 3.10303H14.9502C14.582 3.10303 14.2836 3.40154 14.2836 3.76967C14.2836 5.11303 13.1907 6.20592 11.8473 6.20592C11.4791 6.20592 11.1807 6.50443 11.1807 6.87256V22.6433C11.1807 23.0115 11.4792 23.3099 11.8473 23.3099C13.1907 23.3099 14.2836 24.4028 14.2836 25.7462C14.2836 26.1144 14.5821 26.4128 14.9502 26.4128H17.8772C18.2454 26.4128 18.5439 26.1143 18.5439 25.7462C18.5439 25.3779 18.2454 25.0795 17.8772 25.0795H15.5579C15.281 23.5344 14.0591 22.3125 12.5139 22.0356V7.48022C14.0591 7.20334 15.281 5.98146 15.5579 4.43631H28.5536C28.8304 5.98146 30.0523 7.20334 31.5975 7.48022V22.0357C30.0523 22.3126 28.8304 23.5344 28.5536 25.0796H20.0994C19.7312 25.0796 19.4328 25.3781 19.4328 25.7462C19.4328 26.1144 19.7313 26.4129 20.0994 26.4129H29.1612C29.5294 26.4129 29.8279 26.1144 29.8279 25.7462C29.8279 24.4029 30.9207 23.31 32.2641 23.31C32.6323 23.31 32.9307 23.0115 32.9307 22.6433V6.87264C32.9308 6.50443 32.6323 6.20592 32.2641 6.20592Z" fill="#B77C54"/>
<path d="M26.0553 11.0691H22.722V7.64687C22.722 7.27866 22.4234 6.98022 22.0553 6.98022C21.6871 6.98022 21.3887 7.27874 21.3887 7.64687V11.0691H18.0553C17.6871 11.0691 17.3887 11.3676 17.3887 11.7357C17.3887 12.1039 17.6872 12.4023 18.0553 12.4023H21.3887V21.869C21.3887 22.2372 21.6872 22.5356 22.0553 22.5356C22.4235 22.5356 22.722 22.2371 22.722 21.869V12.4024H26.0553C26.4235 12.4024 26.722 12.1039 26.722 11.7358C26.722 11.3676 26.4235 11.0691 26.0553 11.0691Z" fill="#B77C54"/>
</g>
<defs>
<clipPath id="clip0_252_87">
<rect width="40" height="40" fill="white"/>
</clipPath>
</defs>
</svg>
